<svg width="28" height="28" viewBox="0 0 28 28" fill="none" xmlns="http://www.w3.org/2000/svg">
<g id="Iconly/Bold/Wallet">
<g id="Wallet">
<path id="Wallet_2" fill-rule="evenodd" clip-rule="evenodd" d="M20.7304 9.77877H25.6667C25.6667 5.81536 23.2919 3.5 19.2682 3.5H8.73189C4.70819 3.5 2.33337 5.81536 2.33337 9.72821V18.2718C2.33337 22.1846 4.70819 24.5 8.73189 24.5H19.2682C23.2919 24.5 25.6667 22.1846 25.6667 18.2718V17.9078H20.7304C18.4395 17.9078 16.5823 16.0971 16.5823 13.8635C16.5823 11.6299 18.4395 9.81921 20.7304 9.81921V9.77877ZM20.7305 11.5178H24.7957C25.2768 11.5178 25.6668 11.8981 25.6668 12.3671V15.3195C25.6612 15.7862 25.2744 16.1633 24.7957 16.1688H20.8238C19.664 16.184 18.6498 15.4098 18.3868 14.3084C18.255 13.6247 18.44 12.9192 18.892 12.3809C19.3441 11.8427 20.017 11.5268 20.7305 11.5178ZM20.9066 14.6218H21.2903C21.7829 14.6218 22.1822 14.2325 22.1822 13.7523C22.1822 13.2721 21.7829 12.8828 21.2903 12.8828H20.9066C20.671 12.8801 20.4442 12.9694 20.2766 13.1309C20.109 13.2923 20.0148 13.5125 20.0148 13.7422C20.0147 14.2241 20.4124 14.6163 20.9066 14.6218ZM7.86093 9.77877H14.4461C14.9387 9.77877 15.338 9.38947 15.338 8.90924C15.338 8.42902 14.9387 8.03972 14.4461 8.03972H7.86093C7.37239 8.03969 6.97476 8.42286 6.96908 8.89913C6.96904 9.38102 7.3667 9.77323 7.86093 9.77877Z" fill="#687089"/>
</g>
</g>
</svg>
