<svg width="42" height="42" viewBox="0 0 42 42" fill="none" xmlns="http://www.w3.org/2000/svg">
<g id="Iconly/Bold/Ticket">
<g id="material-symbols:ev-charger">
<path id="Vector" d="M14.875 33.25L19.25 26.25H16.625V21L12.25 28H14.875V33.25ZM10.5 17.5H21V8.75H10.5V17.5ZM7 36.75V8.75C7 7.7875 7.343 6.96325 8.029 6.27725C8.71383 5.59242 9.5375 5.25 10.5 5.25H21C21.9625 5.25 22.7867 5.59242 23.4727 6.27725C24.1576 6.96325 24.5 7.7875 24.5 8.75V21H26.6875C27.5333 21 28.2555 21.2987 28.854 21.896C29.4513 22.4945 29.75 23.2167 29.75 24.0625V32.1562C29.75 32.6521 29.9542 33.1042 30.3625 33.5125C30.7708 33.9208 31.2229 34.125 31.7188 34.125C32.2437 34.125 32.7034 33.9208 33.0977 33.5125C33.4909 33.1042 33.6875 32.6521 33.6875 32.1562V15.75H33.25C32.7542 15.75 32.3388 15.582 32.004 15.246C31.668 14.9112 31.5 14.4958 31.5 14V10.5H32.375V7.875H34.125V10.5H35.875V7.875H37.625V10.5H38.5V14C38.5 14.4958 38.332 14.9112 37.996 15.246C37.6612 15.582 37.2458 15.75 36.75 15.75H36.3125V32.1562C36.3125 33.3813 35.868 34.4528 34.979 35.371C34.0888 36.2903 33.0021 36.75 31.7188 36.75C30.4646 36.75 29.3854 36.2903 28.4812 35.371C27.5771 34.4528 27.125 33.3813 27.125 32.1562V24.0625C27.125 23.9167 27.0888 23.807 27.0165 23.7335C26.943 23.6612 26.8333 23.625 26.6875 23.625H24.5V36.75H7Z" fill="#687089"/>
</g>
</g>
</svg>
